<svg width="53" height="53" viewBox="0 0 53 53" fill="none" xmlns="http://www.w3.org/2000/svg">
<path fill-rule="evenodd" clip-rule="evenodd" d="M26.583 1.32916C12.6269 1.32916 1.3291 12.627 1.3291 26.5831C1.3291 40.5392 12.6269 51.837 26.583 51.837C40.5391 51.837 51.8369 40.5392 51.8369 26.5831C51.6708 12.627 40.373 1.32916 26.583 1.32916Z" fill="#EA4D47"/>
<path d="M26.583 1.32916C12.6269 1.32916 1.3291 12.627 1.3291 26.5831C1.3291 40.5392 12.6269 51.837 26.583 51.837C40.5391 51.837 51.8369 40.5392 51.8369 26.5831C51.6708 12.627 40.373 1.32916 26.583 1.32916Z" stroke="#20354C" stroke-width="1.61" stroke-miterlimit="10"/>
<path fill-rule="evenodd" clip-rule="evenodd" d="M22.9279 29.906C21.2664 28.2445 19.7711 26.0846 18.442 23.5925C18.2758 23.4263 18.2758 23.4263 18.442 23.2602L21.4326 19.9373C21.4326 19.9373 21.4326 19.9373 21.4326 19.7712L18.7743 11.4639C18.6081 11.1317 15.6175 10.7994 14.9529 11.1317C6.97802 15.9498 11.2978 26.5831 18.9404 33.8934C26.2507 41.536 36.884 46.0219 41.8683 37.8809C42.2006 37.3824 41.8683 34.2257 41.536 34.0596L33.2288 31.4012C33.2288 31.4012 33.2288 31.4012 33.0627 31.4012L29.7398 34.3918C29.5736 34.558 29.5736 34.558 29.4075 34.3918C26.7492 33.0627 24.5893 31.5674 22.9279 29.906Z" fill="#20354C"/>
</svg>
